HIERARCHY
ROOT Hips
{
	OFFSET -0.001795 -0.223333 0.028219
	CHANNELS 6 Xposition Yposition Zposition Zrotation Yrotation Xrotation 
	JOINT LeftUpLeg
	{
		OFFSET 0.069520 -0.091406 -0.006815
		CHANNELS 3 Zrotation Yrotation Xrotation
		JOINT LeftLeg
		{
			OFFSET 0.034277 -0.375199 -0.004496
			CHANNELS 3 Zrotation Yrotation Xrotation
			JOINT LeftFoot
			{
				OFFSET -0.013596 -0.397961 -0.043693
				CHANNELS 3 Zrotation Yrotation Xrotation
				JOINT LeftToe
				{
					OFFSET 0.026358 -0.055791 0.119288
					CHANNELS 3 Zrotation Yrotation Xrotation
					End Site
					{
						OFFSET 0.000000 0.000000 0.000000
					}
				}
			}
		}
	}
	JOINT RightUpLeg
	{
		OFFSET -0.067670 -0.090522 -0.004320
		CHANNELS 3 Zrotation Yrotation Xrotation
		JOINT RightLeg
		{
			OFFSET -0.038290 -0.382569 -0.008850
			CHANNELS 3 Zrotation Yrotation Xrotation
			JOINT RightFoot
			{
				OFFSET 0.015774 -0.398415 -0.042312
				CHANNELS 3 Zrotation Yrotation Xrotation
				JOINT RightToe
				{
					OFFSET -0.025372 -0.048144 0.123348
					CHANNELS 3 Zrotation Yrotation Xrotation
					End Site
					{
						OFFSET 0.000000 0.000000 0.000000
					}
				}
			}
		}
	}
	JOINT Spine
	{
		OFFSET -0.002533 0.108963 -0.026696
		CHANNELS 3 Zrotation Yrotation Xrotation
		JOINT Spine1
		{
			OFFSET 0.005487 0.135180 0.001092
			CHANNELS 3 Zrotation Yrotation Xrotation
			JOINT Spine2
			{
				OFFSET 0.001457 0.052922 0.025425
				CHANNELS 3 Zrotation Yrotation Xrotation
				JOINT Neck
				{
					OFFSET -0.002778 0.213870 -0.042857
					CHANNELS 3 Zrotation Yrotation Xrotation
					JOINT Head
					{
						OFFSET 0.005152 0.064970 0.051349
						CHANNELS 3 Zrotation Yrotation Xrotation
						End Site
						{
							OFFSET 0.000000 0.000000 0.000000
						}
					}
				}
				JOINT LeftShoulder
				{
					OFFSET 0.078845 0.121749 -0.034090
					CHANNELS 3 Zrotation Yrotation Xrotation
					JOINT LeftArm
					{
						OFFSET 0.090977 0.030469 -0.008868
						CHANNELS 3 Zrotation Yrotation Xrotation
						JOINT LeftForeArm
						{
							OFFSET 0.259612 -0.012772 -0.027456
							CHANNELS 3 Zrotation Yrotation Xrotation
							JOINT LeftHand
							{
								OFFSET 0.249234 0.008986 -0.001171
								CHANNELS 3 Zrotation Yrotation Xrotation
								End Site
								{
									OFFSET 0.000000 0.000000 0.000000
								}
							}
						}
					}
				}
				JOINT RightShoulder
				{
					OFFSET -0.081759 0.118833 -0.038615
					CHANNELS 3 Zrotation Yrotation Xrotation
					JOINT RightArm
					{
						OFFSET -0.096012 0.032551 -0.009143
						CHANNELS 3 Zrotation Yrotation Xrotation
						JOINT RightForeArm
						{
							OFFSET -0.253742 -0.013329 -0.021401
							CHANNELS 3 Zrotation Yrotation Xrotation
							JOINT RightHand
							{
								OFFSET -0.255298 0.007772 -0.005559
								CHANNELS 3 Zrotation Yrotation Xrotation
								End Site
								{
									OFFSET 0.000000 0.000000 0.000000
								}
							}
						}
					}
				}
			}
		}
	}
}
MOTION
Frames: 6
Frame Time: 0.050000
-0.074877 0.938397 0.019862 -3.425554 30.912515 4.254223 4.829697 -0.449608 -0.233015 6.263152 0.103857 -9.593505 -3.037843 1.329026 9.032012 0.000000 0.000000 0.000000 -0.387388 0.420562 -4.423043 2.423546 -0.463307 -2.698282 0.611057 0.789677 8.614481 0.000000 0.000000 0.000000 -0.489157 -0.002259 -8.536410 -1.241071 0.511090 -0.488825 2.663393 -4.442256 -0.335709 -7.828325 6.163749 -3.016282 0.000000 0.000000 0.000000 -7.827528 10.816340 -5.935178 -64.894673 -24.841858 5.294928 -144.067254 -76.538118 134.658401 0.000000 0.000000 0.000000 6.024757 -12.697088 -5.274092 59.208735 -12.706876 -10.124324 20.268780 40.657475 10.230621 0.000000 0.000000 0.000000 
-0.073861 0.938408 0.019895 -3.373781 31.425085 4.217965 4.776199 -0.450331 -0.283777 6.220885 0.099024 -9.540758 -3.275050 0.935053 8.955436 0.000000 0.000000 0.000000 -0.647683 0.394053 -4.358369 2.749089 -0.518160 -2.545558 0.417096 0.423825 8.595116 0.000000 0.000000 0.000000 -0.519016 -0.021113 -8.814665 -1.271398 0.520833 -0.490124 2.620027 -4.520261 -0.207229 -7.510841 5.948913 -2.997912 0.000000 0.000000 0.000000 -8.135205 10.878743 -6.079603 -66.222088 -25.252774 5.612873 -153.761362 -77.221541 146.898441 0.000000 0.000000 0.000000 6.537194 -13.098638 -5.486750 59.872701 -12.900280 -10.343711 21.042666 46.483734 12.483563 0.000000 0.000000 0.000000 
-0.072800 0.938600 0.019691 -3.317404 31.693402 4.266920 4.518473 -0.425882 -0.272648 6.489925 0.099568 -9.675541 -3.447116 0.740711 9.039383 0.000000 0.000000 0.000000 -0.859627 0.380194 -4.389670 2.937122 -0.550083 -2.443142 0.320277 0.234788 8.660053 0.000000 0.000000 0.000000 -0.451352 -0.026343 -8.962014 -1.305389 0.521327 -0.396303 2.767590 -4.667326 -0.380158 -7.416943 5.886828 -3.131673 0.000000 0.000000 0.000000 -8.786928 11.050130 -6.360334 -66.865587 -24.947104 5.557048 -163.111874 -76.996128 158.464584 0.000000 0.000000 0.000000 6.838431 -14.167931 -5.989287 60.828060 -12.767326 -10.434698 22.939606 52.614711 15.560087 0.000000 0.000000 0.000000 
-0.071712 0.938872 0.019232 -3.351394 32.080765 4.255717 4.396045 -0.422508 -0.511108 6.663847 0.089301 -9.411846 -3.622397 0.437093 8.963529 0.000000 0.000000 0.000000 -1.036679 0.361320 -4.338068 3.207833 -0.598665 -2.470932 0.191029 -0.016355 8.843831 0.000000 0.000000 0.000000 -0.433329 -0.039449 -9.225881 -1.173043 0.413183 -0.023015 2.815966 -4.450305 -0.722368 -7.091660 5.646308 -3.153251 0.000000 0.000000 0.000000 -8.861848 11.110444 -6.433008 -67.397962 -24.870785 5.527080 -170.915424 -77.434184 168.198529 0.000000 0.000000 0.000000 7.064213 -14.054787 -5.951079 62.339209 -11.680224 -10.085691 23.628803 59.478178 18.711793 0.000000 0.000000 0.000000 
-0.070863 0.939400 0.018466 -3.172058 32.100988 4.332445 4.036010 -0.381793 -0.333637 6.863204 0.096409 -9.737068 -3.755942 0.438934 9.254817 0.000000 0.000000 0.000000 -1.345534 0.353190 -4.552898 3.323115 -0.617297 -2.073404 0.185771 -0.034271 8.908674 0.000000 0.000000 0.000000 -0.339604 -0.042859 -9.450051 -1.036930 0.296474 0.405371 2.749057 -4.467341 -0.956861 -7.119059 5.618728 -2.606670 0.000000 0.000000 0.000000 -8.956708 11.438764 -6.583360 -67.439227 -24.799722 5.527911 178.064039 -77.667624 -178.001053 0.000000 0.000000 0.000000 7.146709 -14.093331 -5.981568 63.214936 -9.509530 -9.104677 27.373658 66.954421 24.452016 0.000000 0.000000 0.000000 
-0.070334 0.939880 0.017185 -3.071610 31.775523 4.240652 3.973281 -0.368531 -0.195408 6.628330 0.097752 -9.667923 -3.645555 0.648540 9.332977 0.000000 0.000000 0.000000 -1.666632 0.334349 -4.628397 3.557712 -0.654643 -1.807506 0.350898 0.261994 9.047030 0.000000 0.000000 0.000000 -0.340604 -0.027680 -9.169201 -0.840080 0.267312 -0.010253 2.707528 -4.215389 -0.448525 -6.706275 5.324329 -2.275269 0.000000 0.000000 0.000000 -8.773405 11.239531 -6.463828 -67.011632 -25.009888 5.529017 165.955612 -77.195634 -162.880777 0.000000 0.000000 0.000000 7.173221 -13.338193 -5.637662 64.164496 -6.379222 -7.603056 35.432764 75.923199 35.780427 0.000000 0.000000 0.000000 
